solid OpenSCAD_Model
  facet normal 1 0 0
    outer loop
      vertex 0.009999275 0 0.009999275
      vertex 0.009999275 0.009999275 0
      vertex 0.009999275 0.009999275 0.009999275
    endloop
  endfacet
  facet normal 1 0 0
    outer loop
      vertex 0.009999275 0.009999275 0
      vertex 0.009999275 0 0.009999275
      vertex 0.009999275 0 0
    endloop
  endfacet
  facet normal 0 0 1
    outer loop
      vertex 0 0.009999275 0.009999275
      vertex 0.009999275 0 0.009999275
      vertex 0.009999275 0.009999275 0.009999275
    endloop
  endfacet
  facet normal 0 0 1
    outer loop
      vertex 0.009999275 0 0.009999275
      vertex 0 0.009999275 0.009999275
      vertex 0 0 0.009999275
    endloop
  endfacet
  facet normal 0 0 -1
    outer loop
      vertex 0 0 0
      vertex 0.009999275 0.009999275 0
      vertex 0.009999275 0 0
    endloop
  endfacet
  facet normal 0 0 -1
    outer loop
      vertex 0.009999275 0.009999275 0
      vertex 0 0 0
      vertex 0 0.009999275 0
    endloop
  endfacet
  facet normal -1 0 0
    outer loop
      vertex 0 0 0
      vertex 0 0.009999275 0.009999275
      vertex 0 0.009999275 0
    endloop
  endfacet
  facet normal -1 0 0
    outer loop
      vertex 0 0.009999275 0.009999275
      vertex 0 0 0
      vertex 0 0 0.009999275
    endloop
  endfacet
  facet normal 0 1 0
    outer loop
      vertex 0.009999275 0.009999275 0
      vertex 0 0.009999275 0.009999275
      vertex 0.009999275 0.009999275 0.009999275
    endloop
  endfacet
  facet normal 0 1 0
    outer loop
      vertex 0 0.009999275 0.009999275
      vertex 0.009999275 0.009999275 0
      vertex 0 0.009999275 0
    endloop
  endfacet
  facet normal 0 -1 0
    outer loop
      vertex 0 0 0
      vertex 0.009999275 0 0.009999275
      vertex 0 0 0.009999275
    endloop
  endfacet
  facet normal 0 -1 0
    outer loop
      vertex 0.009999275 0 0.009999275
      vertex 0 0 0
      vertex 0.009999275 0 0
    endloop
  endfacet
endsolid OpenSCAD_Model
